<svg width="224" height="216" viewBox="0 0 224 216" fill="none" xmlns="http://www.w3.org/2000/svg">
<path d="M150.052 79.213C150.052 72.7984 155.52 67.7275 161.942 68.1896L163.391 68.3331C178.2 70.0633 190.046 81.6002 192.015 96.4474L192.746 102.731C193.347 108.798 193.659 114.891 193.68 120.982H193.852C193.97 131.881 193.522 142.787 192.481 153.649C190.459 174.708 173.779 191.41 152.65 193.53L147.583 194.038C124.424 196.36 101.095 196.505 77.9152 194.474L73.2794 194.038L68.214 193.53C47.7441 191.476 31.4461 175.737 28.6115 155.608L28.382 153.649C27.3406 142.787 26.9006 131.881 27.0187 120.982H27.1984C27.2268 112.786 27.7699 104.589 28.8488 96.4474L29.0636 95.0177C31.6633 80.391 43.921 69.2795 58.9142 68.1896C65.3371 67.7262 70.8038 72.7976 70.8038 79.213V86.9474C70.8029 92.4383 66.5498 96.9951 61.0529 97.3985C59.6734 97.4988 58.5176 98.4305 58.1105 99.7071L57.9816 100.278C56.1028 114.457 56.1032 128.826 57.9816 143.005L58.1105 143.577C58.517 144.855 59.6728 145.793 61.0529 145.894L80.9288 147.33C100.57 148.755 120.293 148.755 139.934 147.33L159.811 145.894L160.384 145.801C161.691 145.472 162.7 144.374 162.882 143.005L163.499 137.68C164.556 127.016 164.556 116.268 163.499 105.605L162.882 100.278C162.673 98.7173 161.388 97.5143 159.811 97.3985C154.311 96.9945 150.053 92.4342 150.052 86.9405V79.213Z" fill="white"/>
<path d="M122.566 115.497C116.968 125.256 102.975 125.256 97.3764 115.497L83.3862 91.0997C77.973 81.6605 84.3382 69.9358 94.8911 69.1758V31.1885C94.8913 22.8044 101.646 16.0058 109.975 16.0049C118.304 16.0064 125.059 22.8043 125.059 31.1885V69.1758C135.61 69.9369 141.976 81.6611 136.564 91.0997L122.566 115.497Z" fill="white"/>
</svg>
