<svg width="224" height="216" viewBox="0 0 224 216" fill="none" xmlns="http://www.w3.org/2000/svg">
<rect x="73" y="53" width="102" height="134" rx="32" fill="#060505" stroke="white" stroke-width="16"/>
<rect x="49" y="29" width="102" height="134" rx="32" fill="#060505" stroke="white" stroke-width="16"/>
<mask id="path-3-outside-1_395_423" maskUnits="userSpaceOnUse" x="121.117" y="75.8125" width="91" height="139" fill="black">
<rect fill="white" x="121.117" y="75.8125" width="91" height="139"/>
<path d="M179.151 191.493C173.553 201.252 159.558 201.252 153.96 191.493L139.97 167.096C134.557 157.656 140.923 145.931 151.476 145.171V107.185C151.476 98.8004 158.23 92.002 166.559 92.001C174.888 92.0024 181.643 98.8002 181.643 107.185V145.171C192.194 145.932 198.56 157.657 193.148 167.096L179.151 191.493Z"/>
</mask>
<path d="M179.151 191.493C173.553 201.252 159.558 201.252 153.96 191.493L139.97 167.096C134.557 157.656 140.923 145.931 151.476 145.171V107.185C151.476 98.8004 158.23 92.002 166.559 92.001C174.888 92.0024 181.643 98.8002 181.643 107.185V145.171C192.194 145.932 198.56 157.657 193.148 167.096L179.151 191.493Z" fill="white"/>
<path d="M179.151 191.493L165.273 183.531L165.272 183.532L179.151 191.493ZM153.96 191.493L140.08 199.452L140.082 199.454L153.96 191.493ZM139.97 167.096L153.85 159.137L153.85 159.136L139.97 167.096ZM151.476 145.171L152.625 161.13L167.476 160.06V145.171H151.476ZM151.476 107.185L135.476 107.185V107.185L151.476 107.185ZM166.559 92.001L166.562 76.001H166.557L166.559 92.001ZM181.643 107.185H197.643V107.185L181.643 107.185ZM181.643 145.171H165.643V160.058L180.492 161.129L181.643 145.171ZM193.148 167.096L207.026 175.058L207.028 175.055L193.148 167.096ZM179.151 191.493L165.272 183.532C165.822 182.573 167.288 182.572 167.839 183.532L153.96 191.493L140.082 199.454C151.828 219.933 181.283 219.931 193.029 199.455L179.151 191.493ZM153.96 191.493L167.84 183.534L153.85 159.137L139.97 167.096L126.09 175.055L140.08 199.452L153.96 191.493ZM139.97 167.096L153.85 159.136C153.911 159.243 154 159.492 154 159.798C154 160.06 153.936 160.253 153.866 160.383C153.798 160.512 153.674 160.677 153.444 160.832C153.181 161.011 152.869 161.112 152.625 161.13L151.476 145.171L150.327 129.212C127.978 130.821 114.829 155.419 126.091 175.055L139.97 167.096ZM151.476 145.171H167.476V107.185H151.476L135.476 107.185V145.171H151.476ZM151.476 107.185H167.476C167.476 107.538 167.166 108.001 166.561 108.001L166.559 92.001L166.557 76.001C149.294 76.0031 135.476 90.0629 135.476 107.185L151.476 107.185ZM166.559 92.001L166.556 108.001C165.954 108.001 165.643 107.54 165.643 107.185H181.643L197.643 107.185C197.643 90.0601 183.821 76.004 166.562 76.001L166.559 92.001ZM181.643 107.185H165.643V145.171H181.643H197.643V107.185H181.643ZM181.643 145.171L180.492 161.129C180.247 161.112 179.935 161.011 179.672 160.832C179.442 160.676 179.319 160.512 179.251 160.384C179.182 160.254 179.117 160.061 179.117 159.799C179.117 159.494 179.206 159.244 179.268 159.137L193.148 167.096L207.028 175.055C218.287 155.419 205.139 130.824 182.794 129.212L181.643 145.171ZM193.148 167.096L179.27 159.134L165.273 183.531L179.151 191.493L193.029 199.455L207.026 175.058L193.148 167.096Z" fill="#060505" mask="url(#path-3-outside-1_395_423)"/>
</svg>
